<svg width="25" height="24" viewBox="0 0 25 24" fill="none" xmlns="http://www.w3.org/2000/svg">
<g clip-path="url(#clip0_670_1906)">
<path d="M12.5 24C19.1274 24 24.5 18.6274 24.5 12C24.5 5.37258 19.1274 0 12.5 0C5.87258 0 0.5 5.37258 0.5 12C0.5 18.6274 5.87258 24 12.5 24Z" fill="#F7A59B"/>
<path d="M9.23351 9.6148C9.23351 9.20946 8.90492 8.88086 8.49957 8.88086C8.09422 8.88086 7.76562 9.20946 7.76562 9.6148V12.257C7.76562 12.6624 8.09422 12.991 8.49957 12.991C8.90492 12.991 9.23351 12.6624 9.23351 12.257V9.6148Z" fill="black"/>
<path d="M9.95658 8.37637C10.1408 8.42378 10.3287 8.31283 10.3761 8.12857C10.4235 7.9443 10.3125 7.75649 10.1283 7.70908L7.42081 7.01246C7.23654 6.96505 7.04873 7.07599 7.00132 7.26026C6.95391 7.44453 7.06485 7.63234 7.24912 7.67975L9.95658 8.37637Z" fill="black"/>
<path d="M13.4274 16.244C13.7432 16.2018 14.0144 16.4785 13.9542 16.7914C13.9184 16.9776 13.7712 17.1231 13.584 17.1533C10.9436 17.5795 9.4675 17.1896 7.74007 15.6251C7.58035 15.4805 7.54384 15.2444 7.64647 15.0548C7.79825 14.7746 8.17605 14.7196 8.41341 14.9322C9.85678 16.2255 11.0232 16.5651 13.4274 16.244Z" fill="black"/>
<path d="M16.3384 7.72069C16.524 7.67873 16.6404 7.49427 16.5984 7.30869C16.5565 7.1231 16.372 7.00667 16.1864 7.04863L13.4596 7.66512C13.274 7.70708 13.1576 7.89154 13.1995 8.07713C13.2415 8.26271 13.426 8.37915 13.6116 8.33719L16.3384 7.72069Z" fill="black"/>
<path d="M15.84 9.6148C15.84 9.20946 15.5114 8.88086 15.106 8.88086C14.7007 8.88086 14.3721 9.20946 14.3721 9.6148V12.257C14.3721 12.6624 14.7007 12.991 15.106 12.991C15.5114 12.991 15.84 12.6624 15.84 12.257V9.6148Z" fill="black"/>
<path d="M5.27108 14.0187C6.20338 14.0187 6.95915 13.2629 6.95915 12.3307C6.95915 11.3984 6.20338 10.6426 5.27108 10.6426C4.33878 10.6426 3.58301 11.3984 3.58301 12.3307C3.58301 13.2629 4.33878 14.0187 5.27108 14.0187Z" fill="#F2664E"/>
<path d="M18.3346 14.0187C19.2669 14.0187 20.0226 13.2629 20.0226 12.3307C20.0226 11.3984 19.2669 10.6426 18.3346 10.6426C17.4023 10.6426 16.6465 11.3984 16.6465 12.3307C16.6465 13.2629 17.4023 14.0187 18.3346 14.0187Z" fill="#F2664E"/>
<path d="M19.3992 5.87305L19.9443 7.48017L21.4176 8.07488L19.9443 8.6696L19.3992 10.2767L18.8541 8.6696L17.3809 8.07488L18.8541 7.48017L19.3992 5.87305Z" fill="white"/>
</g>
<defs>
<clipPath id="clip0_670_1906">
<rect width="24" height="24" fill="white" transform="translate(0.5)"/>
</clipPath>
</defs>
</svg>
