<svg width="21" height="24" viewBox="0 0 21 24" fill="none" xmlns="http://www.w3.org/2000/svg">
<path d="M19.8614 9.00713V17.3757L10.4997 22.7489L1.13289 17.3757V6.62427L10.4997 1.24594L17.6946 5.37833L18.7806 4.75536L10.4997 0L0.046875 6.0013V17.9987L10.4997 24L20.9527 17.9987V8.38417L19.8614 9.00713Z" fill="white"/>
<path d="M7.87888 17.3805H6.3125V12.1579H11.5337C12.0277 12.1525 12.4997 11.9538 12.8475 11.605C13.1954 11.2563 13.3912 10.7854 13.3925 10.2941C13.3953 10.0513 13.3482 9.81035 13.2539 9.58629C13.1596 9.36216 13.0202 9.15966 12.8442 8.99112C12.674 8.81716 12.4702 8.6792 12.245 8.58554C12.0198 8.49181 11.7778 8.44436 11.5337 8.44597H6.3125V6.85742H11.5389C12.4539 6.86287 13.3299 7.22671 13.977 7.87002C14.624 8.51338 14.9899 9.38438 14.9954 10.2941C15.001 10.9906 14.7874 11.6713 14.3845 12.2409C14.0137 12.786 13.4912 13.2117 12.8808 13.4661C12.2764 13.6567 11.6456 13.7513 11.0116 13.7465H7.87888V17.3805Z" fill="white"/>
<path d="M14.9588 17.252H13.1314L11.7217 14.8068C12.2794 14.7729 12.8295 14.661 13.3559 14.4746L14.9588 17.252Z" fill="white"/>
<path d="M18.7705 7.2675L19.8514 7.8646L20.9323 7.2675V6.00585L19.8514 5.38281L18.7705 6.00585V7.2675Z" fill="white"/>
</svg>
