<svg width="27" height="24" viewBox="0 0 27 24" fill="none" xmlns="http://www.w3.org/2000/svg">
<path fill-rule="evenodd" clip-rule="evenodd" d="M4.63738 18.3C4.72365 18.2077 4.82791 18.1336 4.94389 18.082C5.05988 18.0305 5.18521 18.0026 5.31237 18H26.5206C26.6103 18.0012 26.6978 18.0281 26.7724 18.0773C26.8471 18.1264 26.9058 18.1959 26.9414 18.2772C26.9771 18.3586 26.9882 18.4483 26.9734 18.5358C26.9586 18.6232 26.9186 18.7045 26.8581 18.77L22.3626 23.7C22.2763 23.7923 22.1721 23.8664 22.0561 23.918C21.9401 23.9695 21.8148 23.9974 21.6876 24H0.465935C0.376201 23.9988 0.288743 23.9719 0.214081 23.9227C0.139419 23.8736 0.0807328 23.8041 0.0450806 23.7228C0.00942833 23.6415 -0.00167114 23.5517 0.0131172 23.4642C0.0279056 23.3768 0.067952 23.2955 0.128439 23.23L4.63738 18.3ZM26.8783 14.2133C26.9388 14.2788 26.9788 14.3602 26.9936 14.4476C27.0084 14.535 26.9973 14.6248 26.9617 14.7061C26.926 14.7875 26.8673 14.8569 26.7927 14.9061C26.718 14.9553 26.6305 14.9821 26.5408 14.9833L5.32587 15C5.19871 14.9974 5.07338 14.9695 4.95739 14.918C4.84141 14.8664 4.73715 14.7923 4.65088 14.7L0.12169 9.78667C0.0612021 9.72119 0.0211557 9.63985 0.00636732 9.55242C-0.00842104 9.465 0.00267843 9.37522 0.0383307 9.29388C0.0739829 9.21253 0.13267 9.1431 0.207332 9.09392C0.281994 9.04474 0.369451 9.01791 0.459185 9.01667L21.6741 9C21.8013 9.00257 21.9266 9.03046 22.0426 9.08201C22.1586 9.13356 22.2628 9.2077 22.3491 9.3L26.8783 14.2133ZM4.63738 0.3C4.72365 0.207705 4.82791 0.133561 4.94389 0.0820116C5.05988 0.0304622 5.18521 0.00256786 5.31237 0L26.5341 0.0166667C26.6238 0.0179149 26.7113 0.0447416 26.7859 0.0939201C26.8606 0.143099 26.9193 0.212534 26.9549 0.293876C26.9906 0.375217 27.0017 0.464999 26.9869 0.552423C26.9721 0.639847 26.9321 0.72119 26.8716 0.786667L22.3626 5.7C22.2763 5.7923 22.1721 5.86644 22.0561 5.91799C21.9401 5.96954 21.8148 5.99743 21.6876 6H0.465935C0.376201 5.99875 0.288743 5.97193 0.214081 5.92275C0.139419 5.87357 0.0807328 5.80413 0.0450806 5.72279C0.00942833 5.64145 -0.00167114 5.55167 0.0131172 5.46424C0.0279056 5.37682 0.067952 5.29548 0.128439 5.23L4.63738 0.3Z" fill="white"/>
</svg>
