<svg width="25" height="20" viewBox="0 0 25 20" fill="none" xmlns="http://www.w3.org/2000/svg">
<path d="M2.14987 8.60987C8.59231 5.78741 12.8883 3.92667 15.0378 3.02765C21.175 0.460775 22.4503 0.0148807 23.2815 0.000156987C23.4643 -0.00308132 23.8731 0.0424775 24.1379 0.25852C24.3614 0.440943 24.4229 0.687369 24.4524 0.860326C24.4818 1.03328 24.5185 1.42728 24.4893 1.73514C24.1568 5.249 22.7177 13.7762 21.9856 17.7118C21.6758 19.3771 21.0658 19.9354 20.4753 19.9901C19.1919 20.1088 18.2174 19.1372 16.9744 18.3179C15.0294 17.0358 13.9305 16.2377 12.0425 14.9867C9.86064 13.5408 11.2751 12.7462 12.5185 11.4475C12.844 11.1076 18.4985 5.93584 18.6079 5.46668C18.6216 5.40801 18.6343 5.18929 18.5051 5.0738C18.3759 4.95831 18.1851 4.9978 18.0475 5.02921C17.8524 5.07373 14.7452 7.1389 8.72584 11.2247C7.84386 11.8337 7.045 12.1304 6.32924 12.1149C5.54017 12.0977 4.02233 11.6663 2.89397 11.2974C1.50999 10.8451 0.410032 10.6059 0.505814 9.83761C0.555703 9.43745 1.10372 9.0282 2.14987 8.60987Z" fill="#0E6AC5"/>
</svg>
