<svg width="25" height="20" viewBox="0 0 25 20" fill="none" xmlns="http://www.w3.org/2000/svg">
<path d="M22.043 4.97895C22.0576 5.19593 22.0576 5.41292 22.0576 5.63191C22.0576 12.3045 17.1045 20 8.04759 20V19.996C5.37215 20 2.75229 19.2141 0.5 17.7321C0.889031 17.7801 1.28001 17.8041 1.67197 17.8051C3.88915 17.8071 6.04296 17.0442 7.78726 15.6393C5.68026 15.5983 3.8326 14.1894 3.18714 12.1325C3.92523 12.2785 4.68574 12.2485 5.41018 12.0455C3.11304 11.5695 1.46039 9.49966 1.46039 7.09581C1.46039 7.07382 1.46039 7.05282 1.46039 7.03182C2.14485 7.42279 2.91121 7.63978 3.69513 7.66378C1.53157 6.18087 0.864656 3.22906 2.17118 0.921204C4.67112 4.076 8.3596 5.99388 12.3191 6.19687C11.9223 4.44298 12.4644 2.6051 13.7436 1.37218C15.7268 -0.539703 18.8459 -0.44171 20.7101 1.59116C21.8129 1.36818 22.8698 0.953202 23.837 0.365239C23.4694 1.53417 22.7001 2.5271 21.6725 3.15806C22.6484 3.04007 23.602 2.77209 24.5 2.36311C23.8389 3.37905 23.0063 4.26399 22.043 4.97895Z" fill="#0E6AC5"/>
</svg>
