<svg width="36" height="36" viewBox="0 0 36 36" fill="none" xmlns="http://www.w3.org/2000/svg">
<path fill-rule="evenodd" clip-rule="evenodd" d="M18 36C27.9411 36 36 27.9411 36 18C36 8.05887 27.9411 0 18 0C8.05887 0 0 8.05887 0 18C0 27.9411 8.05887 36 18 36ZM18.5619 13.6343C16.8155 14.3423 13.325 15.8076 8.09052 18.0303C7.24053 18.3597 6.79526 18.682 6.75472 18.9971C6.68622 19.5297 7.37052 19.7394 8.30237 20.025C8.42912 20.0638 8.56046 20.1041 8.6951 20.1467C9.61189 20.4372 10.8451 20.777 11.4863 20.7905C12.0678 20.8027 12.7169 20.5691 13.4335 20.0895C18.3242 16.8719 20.8489 15.2456 21.0074 15.2105C21.1192 15.1858 21.2741 15.1547 21.3791 15.2456C21.4841 15.3366 21.4738 15.5088 21.4627 15.555C21.3949 15.8367 18.7088 18.2705 17.3187 19.5301C16.8853 19.9228 16.5779 20.2013 16.5151 20.2649C16.3743 20.4074 16.2308 20.5422 16.093 20.6717C15.2412 21.472 14.6025 22.072 16.1283 23.052C16.8615 23.5229 17.4483 23.9123 18.0336 24.3008C18.6729 24.7251 19.3105 25.1483 20.1355 25.6754C20.3456 25.8096 20.5464 25.9491 20.7419 26.085C21.4858 26.6019 22.1542 27.0662 22.9799 26.9922C23.4597 26.9492 23.9553 26.5095 24.207 25.198C24.8019 22.0988 25.9711 15.3836 26.2413 12.6164C26.265 12.374 26.2352 12.0637 26.2113 11.9275C26.1874 11.7913 26.1374 11.5972 25.9558 11.4536C25.7406 11.2835 25.4085 11.2476 25.26 11.2501C24.5846 11.2617 23.5485 11.6129 18.5619 13.6343Z" fill="#00FFB2"/>
</svg>
