<svg width="36" height="36" viewBox="0 0 36 36" fill="none" xmlns="http://www.w3.org/2000/svg">
<path fill-rule="evenodd" clip-rule="evenodd" d="M18 36C27.9411 36 36 27.9411 36 18C36 8.05887 27.9411 0 18 0C8.05887 0 0 8.05887 0 18C0 27.9411 8.05887 36 18 36ZM27.5576 13.741C27.5576 13.5275 27.5576 13.316 27.543 13.1045C28.5063 12.4074 29.3389 11.5446 30 10.554C29.102 10.9528 28.1484 11.2141 27.1725 11.3291C28.2001 10.7139 28.9694 9.74581 29.337 8.60611C28.3698 9.17937 27.3129 9.58397 26.2101 9.80138C24.3459 7.81933 21.2268 7.72379 19.2436 9.58787C17.9644 10.79 17.4223 12.5819 17.8191 14.2919C13.8596 14.094 10.1711 12.2241 7.67118 9.14817C6.36466 11.3983 7.03157 14.2764 9.19512 15.7222C8.41121 15.6988 7.64485 15.4872 6.96039 15.106V15.1684C6.96039 17.5122 8.61304 19.5303 10.9102 19.9944C10.1857 20.1923 9.42523 20.2215 8.68714 20.0792C9.3326 22.0846 11.1803 23.4583 13.2873 23.4983C11.543 24.8681 9.38915 25.612 7.17197 25.61C6.78001 25.609 6.38903 25.5856 6 25.5388C8.25229 26.9837 10.8722 27.75 13.5476 27.7461V27.75C22.6045 27.75 27.5576 20.2469 27.5576 13.7411V13.741Z" fill="#00FFB2"/>
</svg>
